<?xml version="1.0" encoding="UTF-8" standalone="no"?>
<!-- Created with Inkscape (http://www.inkscape.org/) -->

<svg
   version="1.1"
   id="svg1"
   width="413.96057"
   height="905.65991"
   viewBox="0 0 413.96057 905.65991"
   sodipodi:docname="Generated Image March 22, 2025 - 11_25AM.png.jpeg"
   inkscape:version="0.0"
   xmlns:inkscape="http://www.inkscape.org/namespaces/inkscape"
   xmlns:sodipodi="http://sodipodi.sourceforge.net/DTD/sodipodi-0.dtd"
   xmlns="http://www.w3.org/2000/svg"
   xmlns:svg="http://www.w3.org/2000/svg">
  <defs
     id="defs1" />
  <sodipodi:namedview
     id="namedview1"
     pagecolor="#ffffff"
     bordercolor="#111111"
     borderopacity="1"
     inkscape:showpageshadow="0"
     inkscape:pageopacity="0"
     inkscape:pagecheckerboard="1"
     inkscape:deskcolor="#d1d1d1"
     inkscape:zoom="0.84082031"
     inkscape:cx="273.54239"
     inkscape:cy="571.46574"
     inkscape:window-width="1920"
     inkscape:window-height="1057"
     inkscape:window-x="-8"
     inkscape:window-y="-8"
     inkscape:window-maximized="1"
     inkscape:current-layer="g1" />
  <g
     inkscape:groupmode="layer"
     inkscape:label="Image"
     id="g1"
     transform="translate(-119.76361,-42.798981)">
    <path
       style="fill:#101010;stroke:none"
       d="m 308.56329,615.16028 h 1 c -0.0295,8.68433 -1.6572,17.33551 -1.98148,26 -0.29394,7.854 1.35129,16.61975 -2.00003,24 -6.26919,13.80603 -23.41687,25.9342 -25.73608,41 -1.91809,12.46021 14.19714,18.09668 14.5,29 0.35556,12.80096 -5.78235,27.21771 -7.52313,40 -4.14194,30.41357 -8.25928,61.29944 -8.25928,92 0,20.77606 -1.90097,41.25024 0.74072,62 0.57682,4.53064 -1.71875,13.82446 1.14817,17.52313 2.14096,2.76215 9.01001,1.47687 12.11111,1.47687 0,-30.36639 -4.11966,-60.58704 -2.98148,-91 1.48526,-39.6864 6.47794,-78.91797 13.98148,-118 9.97141,1.88062 20.72461,-2.50854 30,-0.58337 8.18658,1.69921 15.86676,6.87445 24,9.17132 11.79666,3.33148 28.2775,1.97724 39.98148,-1.48608 8.70654,-2.57636 13.58364,-14.0904 18.2315,-21.10187 2.27896,-3.43787 5.46643,-6.97888 9.04166,-2.83795 14.97995,17.3501 8.24362,42.5758 12.5509,62.83795 2.63126,12.37781 12.61121,22.07855 16.83795,34 7.82676,22.0752 8.96711,45.98706 11.22223,69 1.22266,12.47675 1.13428,25.45264 1.13428,38 0,4.26404 -1.41541,12.10358 1.75464,15.52313 2.38013,2.56751 8.07721,1.47687 11.24536,1.47687 -0.75275,-24.12183 -2.4859,-48.85669 -4.06018,-73 -0.57623,-8.8371 -4.25928,-19.29138 -3.46295,-28 0.80981,-8.85614 12.82019,-13.63574 11.24072,-24 -0.81274,-5.33307 -4.02173,-11.89093 -8.73608,-14.68982 -6.93793,-4.11902 -16.84604,-3.67895 -16.94446,-14.31018 -0.28156,-30.41467 8.86304,-61.73663 11.82867,-92 4.6994,-47.95593 5.07807,-98.1474 -1.125,-146 -2.81421,-21.70972 -13.29468,-44.16992 -25.75924,-62 -4.0112,-5.73785 -9.80848,-10.38947 -13.49073,-16.25928 -10.16986,-16.21155 -16.32986,-31.74072 -38.49075,-31.74072 0.80957,-6.8186 -0.28302,-18.17126 3.47684,-24 4.88269,-7.56934 15.22799,-10.92633 15.50003,-21 0.33276,-12.32172 -0.37009,-27.06525 -3.6991,-39 -2.08462,-7.47357 -7.94452,-13.76099 -9.64813,-21 -1.97754,-8.40295 1.70984,-30.25677 5.71295,-37.91669 2.81897,-5.3941 11.72852,-1.70746 16.65741,-2.34259 10.75491,-1.38586 21.36722,-5.44714 28.73611,-13.75921 7.2768,-8.20813 9.64731,-19.24097 9.24537,-29.98151 -0.1438,-3.84204 -2.4795,-9.13977 -1.3704,-12.84723 1.73429,-5.79742 10.51981,-7.88946 12.4954,-15.15277 3.94967,-14.52106 -4.89228,-27.45911 -3.76389,-41 1.4931,-17.91772 13.78058,-31.92023 7.92126,-51 -5.06399,-16.48993 -20.30712,-21.64996 -30.04626,-34.004641 -8.80438,-11.16888 -3.70843,-28.417357 -17.27777,-37.930541 -13.29157,-9.31842 -32.13306,-4.398071 -46.93982,-7.5 -6.27304,-1.314148 -9.7579,-7.87561 -16,-8.93518 -11.74976,-1.994507 -30.483,-0.846375 -42,2.263916 -4.31949,1.166504 -8.18982,4.481994 -12.58795,5.125 -12.51016,1.82904 -24.36939,-4.291382 -37.41205,0.33789 -6.90649,2.451355 -9.92865,9.365967 -16.06018,12.055603 -10.84399,4.756836 -20.72556,2.739869 -30.93982,11.018494 -9.01808,7.309143 -9.78479,16.372378 -16.21759,24.569458 -5.88994,7.505371 -14.98555,11.927251 -17.30556,22.000001 -1.60135,6.95258 3.38756,16.04065 1.15279,22 -2.64366,7.04974 -10.02501,11.38458 -12.07871,19 -4.38855,16.27344 7.50412,27.22131 9.44907,41.58795 0.52159,3.85285 -1.95892,8.58594 -2.58333,12.41205 -1.52617,9.35175 1.18532,18.08508 7.64351,25 5.96932,6.39148 13.95972,11.56293 21.93982,15.13428 3.16071,1.41449 9.12259,1.02185 11.11111,4.08331 3.56516,5.48883 2.20527,17.33154 3.14353,23.78241 3.21127,22.0788 8.34396,45.74402 8.83331,68 0.13916,6.3291 -4.8165,13.00519 -6.75,19 -3.81839,11.83893 -5.35812,23.73712 -2.68982,36 1.72681,7.93597 6.70966,12.42145 -0.64813,18.95374 -5.08139,4.51129 -9.36368,-0.45337 -15,-1.5232 -12.4644,-2.3659 -22.75668,1.83673 -26.58334,14.56946 -2.0772,6.91156 0.85234,14.58929 -1.10648,21 -3.87279,12.67468 -13.24254,15.7417 -8.89815,31 2.6099,9.16644 10.43718,14.93134 18.58797,19.22687 4.7314,2.49347 12.60855,4.74347 13.76389,10.77313 1.27038,6.63013 -1.37856,15.24573 -1.69907,22 -0.44139,9.30139 0.60191,19.59979 0.9537,29 0.99952,26.70825 5.04319,54.93683 11.10648,81 3.487,14.98901 8.32181,37.23608 21.01389,47.43518 13.31854,10.70252 23.25424,0.23132 31.65741,-10.43518 16.13879,-20.48566 31.56002,-49.40332 37.2037,-75 m 89,-385 c -2.93689,-8.22998 -3.70276,-18.88342 0.20834,-27 2.3714,-4.92126 8.47278,-9.3606 9.0972,-15 0.88968,-8.03491 -8.49234,-15.06226 -9.09259,-23 -0.59942,-7.92664 9.698,-18.9339 6.65741,-25.98151 -3.16724,-7.34112 -13.99164,-8.56054 -17.76388,-15.15277 -3.79483,-6.63165 3.82251,-16.60992 -2.32407,-22.52313 -7.58936,-7.301211 -21.92654,1.37683 -30.76389,-0.56482 -6.37045,-1.399661 -5.45498,-11.569951 -12.03704,-12.157411 -12.88257,-1.14978 -28.12095,12.918821 -40.98148,15.101871 -10.21573,1.73413 -18.453,-7.755191 -29,-6.583311 -14.23721,1.58191 -22.69476,19.186581 -38.93982,12.402711 -2.71332,-1.13306 -4.69461,-3.84186 -7.06018,-5.54163 -7.14499,32.50519 -6.3797,71.88159 -3.13428,105 1.25788,12.83606 -0.0475,26.39288 3.13428,39 -16.36336,4.76239 -31.23906,-18.26947 -30.99538,-32 0.0995,-5.60681 4.24117,-11.59833 2.86576,-17 -2.7356,-10.74347 -12.31494,-21.43561 -11.45835,-33 0.73853,-9.97034 12.85579,-11.92468 15.37963,-20.01849 2.10414,-6.74787 -6.47818,-15.20496 -4.16204,-22.98151 2.9831,-10.01581 14.15223,-11.29858 19.89354,-18.3241 4.06153,-4.969971 0.96732,-13.087641 5.75925,-18.615721 10.08444,-11.633605 22.46573,-6.580261 33.71295,-13.064819 6.07715,-3.503723 7.78687,-11.206604 15.00464,-13.425903 6.45673,-1.985291 17.3931,-1.357361 24,-0.138916 3.76312,0.69397 8.18668,3.510742 12,3.004639 15.40909,-2.045166 27.77057,-15.893311 45,-12.111084 8.77759,1.92688 12.39346,13.961731 21,15.074035 13.922,1.799317 32.49728,-8.027465 44.86111,1.481507 6.83933,5.26007 9.98612,13.780761 11.00925,22.120361 0.53983,4.40015 -0.17035,12.158201 2.60648,15.722231 3.16339,4.06018 9.43509,5.93964 13.51852,9.00464 8.41248,6.31433 17.16922,16.5816 18.74075,27.27313 1.06537,7.24792 0.52372,15.50568 -3.04165,22 -2.7923,5.08612 -8.07947,10.03564 -8.97687,16 -0.60916,4.04858 2.44659,8.37207 3.85187,12 4.00351,10.33569 7.49484,22.89709 -0.70835,31.99536 -8.89288,9.86322 -18.36575,-6.8573 -29.86111,-6.875 -12.45807,-0.0192 -18.21448,8.76923 -28,13.87964 m -18,-122 c -2.11996,7.47565 -4.44278,17.64258 2.13889,23.52777 3.59127,3.21124 12.82193,5.84149 14.31945,10.625 2.0116,6.42554 -7.18057,14.94794 -7.18057,21.84723 0,9.03241 10.51492,16.12823 9.5463,25 -1.24442,11.39764 -17.03846,19.36731 -21.51389,30 -3.6344,8.63458 4.8338,17.23267 2.88889,26 -1.13382,5.11108 -2.69556,20.03607 -5.67591,23.6759 -4.47571,5.46613 -16.0502,5.76715 -17.0278,14.3241 -0.74734,6.5415 6.72702,13.87817 8.50464,20 -14.25266,5.47284 -13.71402,9.01343 -7.24075,22 1.78814,3.5874 8.35141,16.46497 1.08334,18.43982 -4.01953,1.09216 -8.97852,-5.83746 -11.84259,-7.98608 -8.97162,-6.73041 -19.12769,-10.64655 -30,-13.04169 -11.96252,-2.63532 -24.80426,-1.41205 -37,-1.41205 -5.39389,0 -11.94803,-0.94562 -17,1.34259 -7.38345,3.34418 -9.75095,12.49982 -17,15.65741 l -7,-48 c 15.93155,7.68451 26.68213,12.73517 45,8.12036 2.76883,-0.69757 21.27451,-6.89361 16.56482,-11.58337 -2.62225,-2.61115 -10.58875,2.20935 -13.56482,3.05096 -10.53397,2.97894 -40.76025,6.42468 -41.90277,-10.58795 -0.94061,-14.0061 22.08023,-20.57648 32.90277,-20.98151 3.63501,-0.13604 11.89435,1.57312 14.56482,-1.49072 5.62027,-6.44824 -14.57459,-4.91302 -16.56482,-4.64349 -9.85046,1.33392 -20.55264,4.16797 -29,9.62036 -4.31421,2.78467 -7.46225,7.32251 -12,9.49536 l -3,-59 c 4.01892,2.90527 6.7034,7.11615 11,9.76849 12.12961,7.4878 23.0105,4.14807 36,3.23151 -9.80853,20.12384 -28.89313,9.42963 -42,1 7.77539,18.20099 33.84543,16.65216 44.67593,3 5.62641,-7.09222 6.53141,-17.32031 12.32407,-24 7.06299,9.85864 16.02292,23.45471 27,29.30554 14.00836,7.46649 32.6344,-2.17505 40,-14.30554 -4.98782,2.17261 -8.0618,7.09149 -13,9.70831 -11.01767,5.8385 -25.76447,2.67914 -33,-7.70831 11.35291,0.13861 24.87982,3.30365 33.86111,-6.06482 16.69928,-17.41925 -4.68838,-50.28747 -24.86111,-53.65741 -7.82245,-1.30676 -17.88669,0.80548 -23.98148,6.00464 -3.76211,3.20929 -5.3815,7.69067 -10.01852,9.71759 -11.14099,-15.49805 -30.3316,-18.93274 -44.52777,-5.125 -6.38358,6.20886 -8.82547,14.71765 -14.47223,21.125 l -1,-30 c 15.60901,-1.86377 38.60165,-16.71753 34,-35 h -2 c -5.26248,12.97131 -16.66345,28.46942 -32,29 l 1,-42 c 6.66461,1.1756 15.8421,0.71783 22,-2.36108 5.45743,-2.7287 9.73413,-8.55085 16,-9.48151 10.66708,-1.58435 19.51682,8.49005 30,7.68518 13.06268,-1.00293 24.42609,-13.278561 36.98148,-14.060181 5.40567,-0.33655 8.67236,9.600461 14.01852,11.393491 9.02948,3.02838 19.41183,-4.29834 29,-1.1759 m 112,16 c 3.83612,2.97552 9.59589,3.17957 14,6.45374 3.39221,2.52191 6.5238,5.40142 10,7.81011 6.70831,4.64826 22.42035,7.05433 17.06946,-6.26385 -5.84119,-14.53851 -29.67542,-14.66339 -41.06946,-8 m 9,0 c 7.34406,-4.86896 27.15253,0.89075 29.40741,10 2.72778,11.01947 -14.58252,0.81152 -17.40741,-1.4259 -3.92731,-3.11066 -7.73413,-5.94336 -12,-8.5741 m -189,2 c -3.95364,18.21106 30.68134,28.36121 44,25 -3.81808,-8.04138 -23.43585,-9.64032 -31,-15.47687 -4.39301,-3.38965 -7.42236,-8.22143 -13,-9.52313 m -151,30 c -7.62149,-8.66418 -32.91129,-3.69843 -39.19443,5.13892 -3.66529,5.15527 -0.8254,13.04834 6.19444,12.39813 13.09163,-1.21265 18.07532,-17.48645 32.99999,-17.53705 m -14.99999,-1 c -1.93341,4.03778 -17.59763,21.19983 -22.0463,12.78241 -4.79461,-9.07202 17.39838,-11.90265 22.0463,-12.78241 m 169.99999,14.27777 c 14.64111,-2.51929 27.7348,10.6001 31.81018,23.72223 2.96454,9.54541 0.12146,20.68903 -10.81018,22.90741 -10.06897,2.04333 -26.86868,-1.35437 -33.25925,-9.9259 -9.83499,-13.19147 -5.7435,-33.60602 12.25925,-36.70374 m -55,2.04633 c 30.17108,-6.61158 38.54248,42.44793 8,48.24536 -5.56113,1.0556 -12.69888,1.0025 -18,-1.12036 -23.61545,-9.45697 -10.1106,-42.71802 10,-47.125 m 48.06482,15.56482 c -7.56162,4.14556 -1.84107,15.63403 5.87036,11.875 7.99674,-3.89814 2.26202,-16.3335 -5.87036,-11.875 m -40,3.00463 c -7.73431,4.09076 -2.21668,16.65955 5.78241,12.04163 6.88303,-3.97363 1.54602,-15.91772 -5.78241,-12.04163 m 118.93518,28.10645 c 0.5058,7.53021 2.36111,27.3576 9,31 4.30829,-8.86926 16.60611,-21.55695 27,-22.43518 16.86111,-1.42462 23.71817,20.35351 21.58334,33.43518 -2.61255,16.00903 -14.85656,21.42822 -29.58334,22.86572 -5.6326,0.54981 -17.58752,-5.00049 -19.84259,2.15741 -4.35782,13.83228 -11.5358,36.52747 -10.01389,50.97687 0.80152,7.60974 7.43403,14.73669 10.00925,22 3.40061,9.59125 3.28092,21.8952 2.82871,32 -0.52176,11.65924 -13.33616,18.229 -14.90278,29 -2.49926,17.18329 -3.69073,43.59943 -15.00463,57.78241 -4.22144,5.29193 -13.70768,0.10413 -19.05555,4.43518 -8.17645,6.62183 -3.84005,19.45062 -15.01852,23.42596 -12.48126,4.4386 -18.00699,-4.63403 -28,-8.68981 -6.79498,-2.75788 -18.52536,18.00793 -25.11111,9.56945 -1.54175,-1.97546 -1.22181,-6.11633 -1.68982,-8.52319 -0.7612,-3.91467 -3.05124,-9.0448 -1.71759,-13 3.41973,-10.14197 15.79284,-15.63135 18.31482,-27 3.84674,-17.34045 -19.9701,-20.46674 -30.7963,-17 0.71579,-5.43817 3.36426,-9.40363 6.19446,-14 3.81939,-6.20288 9.31714,-18.46588 17.80554,-18.70831 15.25067,-0.43555 35.98447,26.14081 49.84723,10.68982 11.91107,-13.2757 -1.76096,-44.81513 -14.86575,-53.05097 -12.51889,-7.86761 -38.06849,-4.74072 -50.98148,0.49536 -11.6571,4.72681 -16.97842,13.94953 -20.46759,25.5741 -2.93182,9.76776 -1.86478,16.81824 -12.53241,22 -8.14182,-21.2406 0.54538,-44.33344 12.0463,-63 4.51306,-7.32495 8.99444,-14.68707 16.9537,-18.66669 14.32935,-7.16467 38.34531,-3.30365 53,1.38892 13.49323,4.32068 25.50381,13.68866 34.74072,24.27777 5.54026,6.35132 10.48542,15.08533 17.25928,20 3.32501,-10.81903 -4.33063,-14.75604 -7.72223,-24 -1.79602,-4.89508 4.07956,-8.80322 3.42593,-14 -1.34082,-10.66052 -19.29418,-25.58008 -3.7037,-31.15277 2.29605,-0.82068 4.61551,-1.36676 7,-1.84723 -1.80316,-6.64465 -11.94803,-15.96631 -10.37036,-22.97687 1.47919,-6.57287 13.94275,-7.22784 17.30554,-13.16205 4.7673,-8.41265 4.81412,-27.57275 2.86112,-36.86108 -1.24869,-5.93872 -3.52924,-13.05688 4.2037,-15 m -232,14 c -11.49366,2.67456 -29.28661,25.42603 -22.11109,37.91669 5.26509,9.1651 15.43246,-1.77765 16.67591,-7.91669 2.25259,-11.12128 1.24768,-19.19031 5.43518,-30 m 331,7 c 1.99591,4.16815 6.11572,6.69116 8.12964,11 3.45764,7.39777 1.31866,27.4184 12.87036,27.85187 9.25726,0.34741 8.87402,-11.90229 6.56946,-17.85187 -4.30036,-11.10193 -15.35791,-20.57751 -27.56946,-21 m -339.99999,4 v 12 c 0,3.50366 -2.09377,20.08698 -9.37038,13.35187 -6.6261,-6.133 3.80333,-22.27155 9.37038,-25.35187 m 349.99999,3 c 7.9093,1.84589 20.60614,17.04175 14.93518,25.78241 -3.62695,5.59021 -8.58813,-1.02924 -9.51849,-4.78241 -0.65564,-2.64502 -1.16504,-5.34192 -1.77314,-8 -1.01428,-4.43353 -2.24627,-8.67328 -3.64355,-13 m -167,144 -21.86111,4.62964 -16.13889,-9.23151 -26,5.60187 c 0.96341,-30.21417 56.97791,-27.138 64,-1 m -42,4 c 13.92224,-4.48651 9.3649,13.39728 0,0 m 25,11 v -3 c 4.95148,-1.992 12.33582,-5.99573 17.78241,-3.37036 3.64783,1.7583 3.15729,10.65076 -0.86572,11.75458 -4.84085,1.32824 -12.54782,-3.6236 -16.91669,-5.38422 m -34,-6 c 1.18933,4.84259 -7.49243,25.46527 -13.15277,26.30554 -3.88989,0.57746 -11.30707,-6.99957 -15.84723,-8.30554 2.90228,-6.87781 10.23328,-12.17212 17,-15 v 6 c 3.49564,-1.73395 3.14288,-3.48267 2,-7 l 10,-2 m -45,117 c -2.58295,38.45374 -10.12738,75.67566 -0.5463,114 2.17188,8.6875 7.29838,37.39392 21.5463,32.22687 6.43188,-2.33258 11.59775,-9.91144 15.41205,-15.22687 10.67825,-14.88062 22.51288,-32.06226 29.58331,-49 3.10636,-7.44147 5.88779,-23.8783 13.00464,-28 -3.98279,33.35565 -21.56494,70.34332 -38.60187,99 -3.79275,6.37952 -14.59234,28.94507 -24.39813,24.87036 -5.14893,-2.13959 -7.98978,-8.16369 -10.22687,-12.87036 -5.82178,-12.24854 -9.58984,-24.83215 -12.64813,-38 -6.55746,-28.23401 -8.92432,-60.10559 -9.125,-89 -0.0908,-13.08057 4.28488,-30.48419 1.76389,-42.97687 -0.88178,-4.36957 -5.35431,-3.84686 -7.98148,-6.48144 -3.44234,-3.45209 -5.55287,-10.07233 -7.35649,-14.54169 -4.90578,-12.15656 -9.84836,-27.7312 -8.28703,-41 0.57041,-4.8476 3.59559,-13.03241 8.86573,-14.45831 5.11042,-1.38269 5.84754,3.88196 6.40741,7.45831 0.81072,5.17859 -0.32634,22.37061 6.60649,23.30554 5.84809,0.78864 5.974,-7.66723 6.86112,-11.30554 2.15884,-8.85388 12.44125,-32.14111 25.09723,-27.36572 10.53573,3.97534 -0.21601,24.35785 -3.21762,30.36572 -1.17255,2.34686 -4.56629,6.98773 -2.21759,9.50464 2.84646,3.05035 8.18762,-1.40967 10.45834,-3.15741 6.19217,-4.76593 22.70773,-23.38593 29.77777,-9.28705 3.18729,6.35602 -4.95846,20.08978 -11.77777,21.09259 -3.96719,0.58338 -7.26196,-4.56256 -11,-5.56482 -6.59875,-1.76929 -22.27051,4.26984 -23.77777,11.41205 -1.17874,5.58557 3.03473,21.00598 9.77777,21.6991 11.32822,1.16443 -6.39975,-26.88611 12,-22.1991 11.27621,2.87244 14.51224,24.81738 5.84259,31.93054 -7.61539,6.24817 -22.70151,3.56946 -31.84259,3.56946 m 182,-47 v 1 c -27.99338,27.99329 -33.1947,76.69818 -41.41205,114 -8.85519,40.1972 -24.23694,76.16168 -39.58795,114 10.72,-11.53369 16.70102,-27.71008 22.84259,-42 16.04715,-37.33771 24.27609,-77.11047 35.45371,-116 4.46862,-15.54736 7.21533,-31.35791 14.46295,-46 2.03402,-4.10931 4.6004,-11.2309 9.25927,-13.02777 5.48941,-2.11725 12.00196,9.51117 14.77778,13.02777 3.82968,4.85168 10.48168,11.66382 11.48147,18 0.62879,3.98499 -2.69357,9.24744 -3.94443,13 -3.04092,9.1228 -5.46457,18.51746 -7.09259,28 -6.69919,39.02039 -6.03955,78.87933 -11.98611,118 -2.2829,15.01843 -2.51825,33.95178 -10.93518,47 -3.36038,5.20935 -7.61649,11.58972 -12.57874,15.38892 -18.72946,14.33947 -44.7247,-0.18683 -63.74072,-4.18518 -16.79297,-3.53101 -31.7117,0.87487 -41.11111,-18.20374 -2.87751,-5.84064 3.09854,-11.90198 6.52777,-16 11.63513,-13.90417 17.28149,-24.4939 22.17129,-42 13.72174,-49.12561 33.0661,-96.23279 47.70371,-145 1.73532,-5.78149 2.79745,-12.49683 5.4537,-17.92133 2.12897,-4.34765 6.00174,-5.97845 7.37964,-11.07867 1.95212,-7.22571 2.92676,-20.99176 9.93982,-25.31018 8.55182,-5.26593 19.94974,10.22345 24.93518,15.31018 m -228,8 7,21 c -8.04715,-2.85718 -14.16576,-14.06458 -7,-21 m 176,12 -19.50925,58 -23.49075,69 h -1 l 6,-97 c 9.93631,-1.87402 17.19727,-4.24121 23.43518,-13 5.09714,-7.15698 3.48227,-18.73792 14.56482,-17 m -119,36 c 13.34485,3.36792 23.34555,-3.33026 35.13428,-7.38428 4.39792,-1.51233 9.1998,0.81848 13.86572,-0.69903 7.6485,-2.48749 11.14624,-12.5351 19.78241,-5.04633 7.41037,6.42578 -3.96869,28.68854 -6.44907,36.12964 -8.9237,26.77112 -21.03909,52.77893 -35.53241,77 -3.82623,6.39441 -9.71801,21.05554 -17.80093,22.63428 -5.25647,1.02661 -7.38196,-4.5954 -8.58334,-8.63428 -3.12033,-10.49023 -4.34092,-22.09387 -4.41666,-33 -0.0784,-11.29285 -1.00439,-22.62988 -1,-34 0.005,-13.82294 -0.64404,-34.29889 5,-47 m 205,2 h 1 c 10.53793,22.12646 9.51007,46.22675 11.06018,70 2.58273,39.6106 0.95609,79.59351 -3.19446,119 -1.96447,18.65143 -8.28048,37.24866 -8.86572,56 h -2 c -0.17859,-52.61884 14.06973,-104.89502 8.86572,-158 -1.62719,-16.60498 -4.98602,-33.64856 -8.29165,-50 -2.56903,-12.70776 -5.73243,-24.81616 1.42593,-37 m -9,48 c 5.8226,49.04138 10.23581,100.02954 1,149 -4.44791,-2.03876 -15.436,-14.08105 -15.89816,-19.00464 -1.07978,-11.50268 3.44476,-24.55835 4.76852,-35.99536 2.35532,-20.34961 3.00391,-40.67786 4.99536,-61 0.85569,-8.73181 -0.66958,-26.23682 5.13428,-33 m -25,191 c -15.99139,41.71899 -34.83185,84.15686 -55.24536,124 -7.86521,15.35132 -20.18091,29.16736 -26.75464,45 9.09561,0.8421 20.60025,-20.76794 24.72687,-28 18.18667,-31.8728 34.8248,-65.92102 48.4722,-100 3.86105,-9.64142 8.2716,-19.1051 11.46298,-29 1.604,-4.97327 3.78439,-10.41937 -2.66205,-12 m 55,61 h -2 l -7,-18 c 10.36353,1.06165 11.68982,9.58209 9,18"
       id="path1"
       inkscape:label="path1"
       sodipodi:nodetypes="ccsssssssscscsssssssssscssssssssscssssssssssssssssssssssssssssssssssssssssssssssccssssssssssscscsssssssssscssssssssssssccsssssssscssssssccsssssscsccsccscscscssscsccccccsssssccsssccsscccsccssccsccsssccssccsccscccsssssssssssssssscsssssscsssscssscsssccssccsssccssccsssccccccccccssccsccccccsssscsssssssssssssssssssssssscccscssssssssssssssssssscccccccccsccssssssssccccssccsscccsssccscsssccccc" />
  </g>
</svg>
